<svg xmlns="http://www.w3.org/2000/svg" xmlns:xlink="http://www.w3.org/1999/xlink" width="500" zoomAndPan="magnify" viewBox="0 0 375 374.999991" height="500" preserveAspectRatio="xMidYMid meet" version="1.0"><defs><g/></defs><g fill="#ffa7e4" fill-opacity="1"><g transform="translate(56.15637, 224.720697)"><g><path d="M 27.613281 -65.957031 C 26.667969 -65.957031 1.339844 -67.296875 1.339844 -45.363281 C 1.339844 -31.636719 11.28125 -23.746094 24.617188 -23.746094 L 29.347656 -23.746094 C 31.953125 -23.746094 34.082031 -22.167969 34.082031 -19.566406 C 34.082031 -17.042969 31.953125 -15.226562 29.742188 -15.226562 C 28.480469 -15.226562 26.351562 -15.621094 25.5625 -18.777344 C 25.324219 -19.410156 25.011719 -19.804688 23.828125 -19.566406 L 2.683594 -17.042969 C 1.5 -16.804688 1.261719 -16.015625 1.894531 -14.832031 C 5.128906 -5.839844 10.886719 2.839844 30.613281 2.839844 C 40.550781 2.839844 53.097656 -2.605469 53.097656 -19.960938 C 53.097656 -41.339844 34.242188 -39.761719 27.613281 -39.761719 C 25.5625 -39.761719 21.617188 -40.238281 21.617188 -44.023438 C 21.617188 -47.101562 24.222656 -48.441406 25.957031 -48.441406 C 27.21875 -48.441406 29.347656 -47.496094 30.136719 -45.363281 C 30.453125 -44.417969 31.164062 -44.023438 31.953125 -44.023438 L 51.28125 -46.707031 C 52.148438 -46.785156 52.78125 -47.652344 52.542969 -48.835938 C 51.675781 -53.097656 47.890625 -65.957031 27.613281 -65.957031 Z M 27.613281 -65.957031 "/></g></g></g><g fill="#ffa7e4" fill-opacity="1"><g transform="translate(110.590251, 224.720697)"><g><path d="M 47.101562 -63.351562 L 37.160156 -63.351562 C 33.925781 -63.351562 31.320312 -60.75 31.320312 -57.515625 L 31.320312 -43.472656 C 31.320312 -43 30.925781 -42.523438 30.53125 -42.445312 L 25.089844 -42.445312 C 24.695312 -42.523438 24.300781 -43 24.222656 -43.394531 L 24.222656 -57.515625 C 24.222656 -60.75 21.617188 -63.351562 18.382812 -63.351562 L 8.441406 -63.351562 C 5.207031 -63.351562 2.605469 -60.75 2.605469 -57.515625 L 2.605469 -5.757812 C 2.605469 -2.445312 5.207031 0.15625 8.441406 0.15625 L 18.382812 0.15625 C 21.617188 0.15625 24.222656 -2.445312 24.222656 -5.757812 L 24.222656 -19.722656 C 24.300781 -20.277344 24.535156 -20.59375 25.089844 -20.75 L 30.53125 -20.75 C 30.925781 -20.59375 31.320312 -20.277344 31.320312 -19.722656 L 31.320312 -5.757812 C 31.320312 -2.445312 33.925781 0.15625 37.160156 0.15625 L 47.101562 0.15625 C 50.414062 0.15625 53.019531 -2.445312 53.019531 -5.757812 L 53.019531 -57.515625 C 53.019531 -60.75 50.414062 -63.351562 47.101562 -63.351562 Z M 47.101562 -63.351562 "/></g></g></g><g fill="#ffa7e4" fill-opacity="1"><g transform="translate(166.20747, 224.720697)"><g><path d="M 24.617188 -45.996094 L 40.632812 -45.996094 C 42.917969 -45.996094 44.8125 -47.890625 44.8125 -50.097656 L 44.8125 -58.933594 C 44.8125 -61.222656 42.917969 -63.039062 40.632812 -63.039062 L 8.363281 -63.039062 C 5.128906 -63.039062 2.605469 -60.511719 2.605469 -58.699219 L 2.605469 -7.335938 C 2.605469 -2.683594 5.128906 -0.15625 8.363281 -0.15625 L 40.632812 -0.15625 C 42.917969 -0.15625 44.8125 -1.972656 44.8125 -4.261719 L 44.8125 -13.097656 C 44.8125 -15.382812 42.917969 -17.355469 40.632812 -17.355469 L 24.617188 -17.355469 C 24.300781 -17.355469 24.0625 -17.59375 24.0625 -17.910156 L 24.0625 -22.957031 C 24.0625 -23.273438 24.300781 -23.511719 24.617188 -23.511719 L 36.214844 -23.511719 C 38.265625 -23.511719 40 -25.167969 40 -27.296875 L 40 -35.898438 C 40 -37.949219 38.265625 -39.683594 36.214844 -39.683594 L 24.617188 -39.683594 C 24.300781 -39.683594 24.0625 -39.921875 24.0625 -40.15625 L 24.0625 -45.363281 C 24.0625 -45.601562 24.300781 -45.996094 24.617188 -45.996094 Z M 24.617188 -45.996094 "/></g></g></g><g fill="#ffa7e4" fill-opacity="1"><g transform="translate(213.620167, 224.720697)"><g><path d="M 24.617188 -45.996094 L 40.632812 -45.996094 C 42.917969 -45.996094 44.8125 -47.890625 44.8125 -50.097656 L 44.8125 -58.933594 C 44.8125 -61.222656 42.917969 -63.039062 40.632812 -63.039062 L 8.363281 -63.039062 C 5.128906 -63.039062 2.605469 -60.511719 2.605469 -58.699219 L 2.605469 -7.335938 C 2.605469 -2.683594 5.128906 -0.15625 8.363281 -0.15625 L 40.632812 -0.15625 C 42.917969 -0.15625 44.8125 -1.972656 44.8125 -4.261719 L 44.8125 -13.097656 C 44.8125 -15.382812 42.917969 -17.355469 40.632812 -17.355469 L 24.617188 -17.355469 C 24.300781 -17.355469 24.0625 -17.59375 24.0625 -17.910156 L 24.0625 -22.957031 C 24.0625 -23.273438 24.300781 -23.511719 24.617188 -23.511719 L 36.214844 -23.511719 C 38.265625 -23.511719 40 -25.167969 40 -27.296875 L 40 -35.898438 C 40 -37.949219 38.265625 -39.683594 36.214844 -39.683594 L 24.617188 -39.683594 C 24.300781 -39.683594 24.0625 -39.921875 24.0625 -40.15625 L 24.0625 -45.363281 C 24.0625 -45.601562 24.300781 -45.996094 24.617188 -45.996094 Z M 24.617188 -45.996094 "/></g></g></g><g fill="#ffa7e4" fill-opacity="1"><g transform="translate(261.032863, 224.720697)"><g><path d="M 49.785156 -44.183594 L 49.785156 -58.144531 C 49.785156 -60.828125 47.652344 -62.957031 45.128906 -62.957031 L 7.417969 -62.957031 C 4.8125 -62.957031 2.683594 -60.828125 2.683594 -58.144531 L 2.683594 -47.417969 C 2.683594 -44.8125 4.8125 -42.683594 7.417969 -42.683594 L 22.089844 -42.683594 C 22.5625 -42.683594 23.039062 -42.128906 23.039062 -41.65625 C 23.039062 -41.339844 22.957031 -41.105469 22.800781 -40.945312 L 3.785156 -22.40625 C 3.078125 -21.617188 2.605469 -20.984375 2.605469 -19.644531 L 2.605469 -4.890625 C 2.605469 -2.367188 4.734375 -0.15625 7.335938 -0.15625 L 45.128906 -0.15625 C 47.652344 -0.15625 49.785156 -2.367188 49.785156 -4.890625 L 49.785156 -15.699219 C 49.785156 -18.382812 47.652344 -20.511719 45.128906 -20.511719 L 27.769531 -20.511719 L 48.363281 -40.710938 C 49.390625 -41.734375 49.785156 -43 49.785156 -44.183594 Z M 49.785156 -44.183594 "/></g></g></g><path stroke-linecap="butt" transform="matrix(0.411688, 0, 0, 0.411688, 37.500002, 159.761534)" fill="none" stroke-linejoin="miter" d="M 119.003307 -7.201233 C 116.659676 -7.201233 55.184436 -10.474726 55.184436 42.812038 C 55.184436 76.173197 79.322885 95.311267 111.697251 95.311267 L 123.206661 95.311267 C 129.525925 95.311267 134.668629 99.144574 134.668629 105.463838 C 134.668629 111.593334 129.525925 115.995944 124.146011 115.995944 C 121.10024 115.995944 115.910094 115.056594 113.99344 107.380491 C 113.433626 105.833885 112.636601 104.904023 109.780598 105.463838 L 58.410487 111.593334 C 55.554483 112.200591 54.994669 114.117244 56.493833 116.973248 C 64.350215 138.824996 78.345582 159.87972 126.252432 159.87972 C 150.390881 159.87972 180.896036 146.681378 180.896036 104.524488 C 180.896036 52.594562 135.095606 56.427869 119.003307 56.427869 C 113.99344 56.427869 104.400684 55.260798 104.400684 46.047577 C 104.400684 38.608684 110.719948 35.325704 114.970744 35.325704 C 118.016515 35.325704 123.206661 37.621892 125.132803 42.812038 C 125.872897 45.108227 127.609271 46.047577 129.525925 46.047577 L 176.455472 39.538546 C 178.561893 39.358267 180.099011 37.251845 179.539197 34.395842 C 177.432775 24.006061 168.219555 -7.201233 119.003307 -7.201233 Z M 298.523532 -0.88197 L 274.375595 -0.88197 C 266.519213 -0.88197 260.199949 5.437294 260.199949 13.293676 L 260.199949 47.404416 C 260.199949 48.571488 259.270087 49.691117 258.283295 49.880885 L 245.094442 49.880885 C 244.10765 49.691117 243.1683 48.571488 242.940578 47.584696 L 242.940578 13.293676 C 242.940578 5.437294 236.621315 -0.88197 228.764933 -0.88197 L 204.616996 -0.88197 C 196.760614 -0.88197 190.44135 5.437294 190.44135 13.293676 L 190.44135 139.014764 C 190.44135 147.060913 196.760614 153.370689 204.616996 153.370689 L 228.764933 153.370689 C 236.621315 153.370689 242.940578 147.060913 242.940578 139.014764 L 242.940578 105.093791 C 243.1683 103.736952 243.737603 102.98737 245.094442 102.607834 L 258.283295 102.607834 C 259.270087 102.98737 260.199949 103.736952 260.199949 105.093791 L 260.199949 139.014764 C 260.199949 147.060913 266.519213 153.370689 274.375595 153.370689 L 298.523532 153.370689 C 306.569681 153.370689 312.936387 147.060913 312.936387 139.014764 L 312.936387 13.293676 C 312.936387 5.437294 306.569681 -0.88197 298.523532 -0.88197 Z M 379.013493 41.27492 L 417.896891 41.27492 C 423.466572 41.27492 428.096903 36.682542 428.096903 31.302629 L 428.096903 9.830416 C 428.096903 4.308176 423.466572 -0.132387 417.896891 -0.132387 L 339.532327 -0.132387 C 331.666457 -0.132387 325.536961 5.997109 325.536961 10.437672 L 325.536961 135.171968 C 325.536961 146.501099 331.666457 152.621106 339.532327 152.621106 L 417.896891 152.621106 C 423.466572 152.621106 428.096903 148.227984 428.096903 142.658303 L 428.096903 121.18609 C 428.096903 115.616409 423.466572 110.843752 417.896891 110.843752 L 379.013493 110.843752 C 378.263911 110.843752 377.656654 110.283937 377.656654 109.486913 L 377.656654 97.227921 C 377.656654 96.478338 378.263911 95.871082 379.013493 95.871082 L 407.184505 95.871082 C 412.184884 95.871082 416.397726 91.848007 416.397726 86.705303 L 416.397726 65.792904 C 416.397726 60.83048 412.184884 56.617637 407.184505 56.617637 L 379.013493 56.617637 C 378.263911 56.617637 377.656654 56.010381 377.656654 55.450566 L 377.656654 42.812038 C 377.656654 42.252224 378.263911 41.27492 379.013493 41.27492 Z M 494.183498 41.27492 L 533.066895 41.27492 C 538.627088 41.27492 543.266908 36.682542 543.266908 31.302629 L 543.266908 9.830416 C 543.266908 4.308176 538.627088 -0.132387 533.066895 -0.132387 L 454.692844 -0.132387 C 446.836462 -0.132387 440.706966 5.997109 440.706966 10.437672 L 440.706966 135.171968 C 440.706966 146.501099 446.836462 152.621106 454.692844 152.621106 L 533.066895 152.621106 C 538.627088 152.621106 543.266908 148.227984 543.266908 142.658303 L 543.266908 121.18609 C 543.266908 115.616409 538.627088 110.843752 533.066895 110.843752 L 494.183498 110.843752 C 493.433916 110.843752 492.826659 110.283937 492.826659 109.486913 L 492.826659 97.227921 C 492.826659 96.478338 493.433916 95.871082 494.183498 95.871082 L 522.345022 95.871082 C 527.354888 95.871082 531.567731 91.848007 531.567731 86.705303 L 531.567731 65.792904 C 531.567731 60.83048 527.354888 56.617637 522.345022 56.617637 L 494.183498 56.617637 C 493.433916 56.617637 492.826659 56.010381 492.826659 55.450566 L 492.826659 42.812038 C 492.826659 42.252224 493.433916 41.27492 494.183498 41.27492 Z M 670.496649 45.668042 L 670.496649 11.747069 C 670.496649 5.247526 665.306503 0.0573803 659.177007 0.0573803 L 567.56666 0.0573803 C 561.256884 0.0573803 556.05725 5.247526 556.05725 11.747069 L 556.05725 37.81166 C 556.05725 44.130924 561.256884 49.32107 567.56666 49.32107 L 603.224007 49.32107 C 604.343636 49.32107 605.510707 50.677909 605.510707 51.797538 C 605.510707 52.594562 605.330428 53.154377 604.950892 53.533912 L 558.770928 98.58476 C 557.044042 100.501413 555.876971 102.000578 555.876971 105.27407 L 555.876971 141.111697 C 555.876971 147.241193 561.067117 152.621106 567.38638 152.621106 L 659.177007 152.621106 C 665.306503 152.621106 670.496649 147.241193 670.496649 141.111697 L 670.496649 114.866826 C 670.496649 108.367283 665.306503 103.167649 659.177007 103.167649 L 617.020117 103.167649 L 667.042877 54.093727 C 669.519345 51.60777 670.496649 48.571488 670.496649 45.668042 Z M 670.496649 45.668042 " stroke="#ff66c4" stroke-width="3.114264" stroke-opacity="1" stroke-miterlimit="4"/><g fill="#5ce1e6" fill-opacity="1"><g transform="translate(42.306942, 147.531713)"><g><path d="M 40.710938 -62.957031 L 8.363281 -62.957031 C 5.207031 -62.957031 2.605469 -60.355469 2.605469 -57.121094 L 2.605469 -5.839844 C 2.605469 -2.605469 5.207031 0 8.363281 0 L 18.226562 0 C 21.460938 0 24.0625 -2.605469 24.0625 -5.839844 L 24.0625 -20.671875 C 24.0625 -21.066406 24.300781 -21.222656 24.617188 -21.300781 L 36.214844 -21.300781 C 38.265625 -21.300781 40 -22.957031 40 -25.011719 L 40 -33.6875 C 40 -35.820312 38.265625 -37.476562 36.214844 -37.476562 L 24.617188 -37.476562 C 24.300781 -37.476562 24.0625 -37.710938 24.0625 -38.027344 L 24.0625 -45.285156 C 24.0625 -45.523438 24.300781 -45.839844 24.617188 -45.839844 L 40.710938 -45.839844 C 43 -45.839844 44.8125 -47.730469 44.8125 -49.941406 L 44.8125 -58.777344 C 44.8125 -61.144531 43 -62.957031 40.710938 -62.957031 Z M 40.710938 -62.957031 "/></g></g></g><g fill="#5ce1e6" fill-opacity="1"><g transform="translate(89.719645, 147.531713)"><g><path d="M 24.617188 -45.996094 L 40.632812 -45.996094 C 42.917969 -45.996094 44.8125 -47.890625 44.8125 -50.097656 L 44.8125 -58.933594 C 44.8125 -61.222656 42.917969 -63.039062 40.632812 -63.039062 L 8.363281 -63.039062 C 5.128906 -63.039062 2.605469 -60.511719 2.605469 -58.699219 L 2.605469 -7.335938 C 2.605469 -2.683594 5.128906 -0.15625 8.363281 -0.15625 L 40.632812 -0.15625 C 42.917969 -0.15625 44.8125 -1.972656 44.8125 -4.261719 L 44.8125 -13.097656 C 44.8125 -15.382812 42.917969 -17.355469 40.632812 -17.355469 L 24.617188 -17.355469 C 24.300781 -17.355469 24.0625 -17.59375 24.0625 -17.910156 L 24.0625 -22.957031 C 24.0625 -23.273438 24.300781 -23.511719 24.617188 -23.511719 L 36.214844 -23.511719 C 38.265625 -23.511719 40 -25.167969 40 -27.296875 L 40 -35.898438 C 40 -37.949219 38.265625 -39.683594 36.214844 -39.683594 L 24.617188 -39.683594 C 24.300781 -39.683594 24.0625 -39.921875 24.0625 -40.15625 L 24.0625 -45.363281 C 24.0625 -45.601562 24.300781 -45.996094 24.617188 -45.996094 Z M 24.617188 -45.996094 "/></g></g></g><g fill="#5ce1e6" fill-opacity="1"><g transform="translate(137.132347, 147.531713)"><g><path d="M 24.617188 -45.996094 L 40.632812 -45.996094 C 42.917969 -45.996094 44.8125 -47.890625 44.8125 -50.097656 L 44.8125 -58.933594 C 44.8125 -61.222656 42.917969 -63.039062 40.632812 -63.039062 L 8.363281 -63.039062 C 5.128906 -63.039062 2.605469 -60.511719 2.605469 -58.699219 L 2.605469 -7.335938 C 2.605469 -2.683594 5.128906 -0.15625 8.363281 -0.15625 L 40.632812 -0.15625 C 42.917969 -0.15625 44.8125 -1.972656 44.8125 -4.261719 L 44.8125 -13.097656 C 44.8125 -15.382812 42.917969 -17.355469 40.632812 -17.355469 L 24.617188 -17.355469 C 24.300781 -17.355469 24.0625 -17.59375 24.0625 -17.910156 L 24.0625 -22.957031 C 24.0625 -23.273438 24.300781 -23.511719 24.617188 -23.511719 L 36.214844 -23.511719 C 38.265625 -23.511719 40 -25.167969 40 -27.296875 L 40 -35.898438 C 40 -37.949219 38.265625 -39.683594 36.214844 -39.683594 L 24.617188 -39.683594 C 24.300781 -39.683594 24.0625 -39.921875 24.0625 -40.15625 L 24.0625 -45.363281 C 24.0625 -45.601562 24.300781 -45.996094 24.617188 -45.996094 Z M 24.617188 -45.996094 "/></g></g></g><g fill="#5ce1e6" fill-opacity="1"><g transform="translate(184.545057, 147.531713)"><g><path d="M 39.132812 -21.300781 L 23.746094 -21.300781 L 23.746094 -56.726562 C 23.746094 -60.117188 20.75 -63.117188 17.515625 -63.117188 L 8.363281 -63.117188 C 4.96875 -63.117188 2.605469 -60.117188 2.605469 -56.726562 L 2.605469 -5.207031 C 2.605469 -2.367188 4.417969 0 7.8125 0 L 39.132812 0 C 42.050781 0 44.417969 -2.367188 44.417969 -5.207031 L 44.417969 -15.777344 C 44.417969 -18.699219 42.050781 -21.300781 39.132812 -21.300781 Z M 39.132812 -21.300781 "/></g></g></g><g fill="#5ce1e6" fill-opacity="1"><g transform="translate(231.563303, 147.531713)"><g><path d="M 8.207031 0.078125 L 17.988281 0.078125 C 21.300781 0.078125 23.667969 -2.605469 23.667969 -5.601562 L 23.667969 -57.4375 C 23.667969 -60.75 21.300781 -63.117188 17.988281 -63.117188 L 8.207031 -63.117188 C 5.128906 -63.117188 2.605469 -60.75 2.605469 -57.4375 L 2.605469 -5.601562 C 2.605469 -2.605469 5.128906 0.078125 8.207031 0.078125 Z M 8.207031 0.078125 "/></g></g></g><g fill="#5ce1e6" fill-opacity="1"><g transform="translate(257.833565, 147.531713)"><g><path d="M 48.679688 -63.039062 L 38.738281 -63.039062 C 35.660156 -63.039062 32.976562 -60.511719 32.976562 -57.355469 L 32.976562 -38.816406 L 23.746094 -59.328125 C 22.878906 -61.539062 20.75 -63.039062 18.304688 -63.039062 L 8.363281 -63.039062 C 5.207031 -63.039062 2.605469 -60.511719 2.605469 -57.355469 L 2.605469 -4.65625 C 2.605469 -1.5 5.207031 1.027344 8.363281 1.027344 L 18.304688 1.027344 C 21.539062 1.027344 24.0625 -1.5 24.0625 -4.65625 L 24.0625 -22.40625 L 33.292969 -2.839844 C 34.242188 -0.632812 36.214844 1.027344 38.738281 1.027344 L 48.679688 1.027344 C 51.914062 1.027344 54.4375 -1.5 54.4375 -4.65625 L 54.4375 -57.355469 C 54.4375 -60.511719 51.914062 -63.039062 48.679688 -63.039062 Z M 48.679688 -63.039062 "/></g></g></g><g fill="#5ce1e6" fill-opacity="1"><g transform="translate(314.870816, 147.531713)"><g><path d="M 8.285156 -47.890625 L 4.101562 -47.890625 C 2.523438 -47.890625 1.339844 -49.074219 1.339844 -50.492188 L 1.339844 -60.433594 C 1.339844 -61.855469 2.523438 -63.117188 4.101562 -63.117188 L 8.285156 -63.117188 C 9.78125 -63.117188 11.046875 -61.855469 11.046875 -60.433594 L 11.046875 -50.492188 C 11.046875 -49.074219 9.78125 -47.890625 8.285156 -47.890625 Z M 8.285156 -47.890625 "/></g></g></g><path stroke-linecap="butt" transform="matrix(0.411688, 0, 0, 0.411688, 37.500002, 82.572556)" fill="none" stroke-linejoin="miter" d="M 117.172049 0.0514804 L 38.570276 0.0514804 C 30.894173 0.0514804 24.584398 6.418186 24.584398 14.274568 L 24.584398 138.819096 C 24.584398 146.684966 30.894173 153.00423 38.570276 153.00423 L 62.528445 153.00423 C 70.384827 153.00423 76.704091 146.684966 76.704091 138.819096 L 76.704091 102.80119 C 76.704091 101.814399 77.311348 101.444352 78.06093 101.254584 L 106.222454 101.254584 C 111.23232 101.254584 115.445163 97.231509 115.445163 92.269084 L 115.445163 71.166918 C 115.445163 65.976772 111.23232 61.953697 106.222454 61.953697 L 78.06093 61.953697 C 77.311348 61.953697 76.704091 61.393883 76.704091 60.6443 L 76.704091 43.005395 C 76.704091 42.44558 77.311348 41.648556 78.06093 41.648556 L 117.172049 41.648556 C 122.694288 41.648556 127.134852 37.065666 127.134852 31.685753 L 127.134852 10.204051 C 127.134852 4.501532 122.694288 0.0514804 117.172049 0.0514804 Z M 193.230935 41.26902 L 232.104844 41.26902 C 237.674525 41.26902 242.304857 36.686131 242.304857 31.306217 L 242.304857 9.834004 C 242.304857 4.311765 237.674525 -0.138287 232.104844 -0.138287 L 153.740281 -0.138287 C 145.87441 -0.138287 139.744914 5.991209 139.744914 10.441261 L 139.744914 135.175557 C 139.744914 146.495199 145.87441 152.624695 153.740281 152.624695 L 232.104844 152.624695 C 237.674525 152.624695 242.304857 148.231573 242.304857 142.661892 L 242.304857 121.18019 C 242.304857 115.619997 237.674525 110.84734 232.104844 110.84734 L 193.230935 110.84734 C 192.481352 110.84734 191.874096 110.287525 191.874096 109.490501 L 191.874096 97.231509 C 191.874096 96.481927 192.481352 95.87467 193.230935 95.87467 L 221.392458 95.87467 C 226.402325 95.87467 230.605679 91.851595 230.605679 86.699403 L 230.605679 65.787005 C 230.605679 60.834068 226.402325 56.621226 221.392458 56.621226 L 193.230935 56.621226 C 192.481352 56.621226 191.874096 56.013969 191.874096 55.444666 L 191.874096 42.815627 C 191.874096 42.255812 192.481352 41.26902 193.230935 41.26902 Z M 308.391451 41.26902 L 347.274849 41.26902 C 352.84453 41.26902 357.474862 36.686131 357.474862 31.306217 L 357.474862 9.834004 C 357.474862 4.311765 352.84453 -0.138287 347.274849 -0.138287 L 268.900797 -0.138287 C 261.044415 -0.138287 254.914919 5.991209 254.914919 10.441261 L 254.914919 135.175557 C 254.914919 146.495199 261.044415 152.624695 268.900797 152.624695 L 347.274849 152.624695 C 352.84453 152.624695 357.474862 148.231573 357.474862 142.661892 L 357.474862 121.18019 C 357.474862 115.619997 352.84453 110.84734 347.274849 110.84734 L 308.391451 110.84734 C 307.641869 110.84734 307.034612 110.287525 307.034612 109.490501 L 307.034612 97.231509 C 307.034612 96.481927 307.641869 95.87467 308.391451 95.87467 L 336.562463 95.87467 C 341.562842 95.87467 345.775684 91.851595 345.775684 86.699403 L 345.775684 65.787005 C 345.775684 60.834068 341.562842 56.621226 336.562463 56.621226 L 308.391451 56.621226 C 307.641869 56.621226 307.034612 56.013969 307.034612 55.444666 L 307.034612 42.815627 C 307.034612 42.255812 307.641869 41.26902 308.391451 41.26902 Z M 458.839268 101.254584 L 421.455035 101.254584 L 421.455035 15.213918 C 421.455035 6.978001 414.158467 -0.318567 406.292597 -0.318567 L 384.070802 -0.318567 C 375.834885 -0.318567 370.084924 6.978001 370.084924 15.213918 L 370.084924 140.365703 C 370.084924 147.244781 374.478046 153.00423 382.761405 153.00423 L 458.839268 153.00423 C 465.898625 153.00423 471.658074 147.244781 471.658074 140.365703 L 471.658074 114.680647 C 471.658074 107.573848 465.898625 101.254584 458.839268 101.254584 Z M 497.902944 153.184509 L 521.671346 153.184509 C 529.717496 153.184509 535.476945 146.684966 535.476945 139.388399 L 535.476945 13.477544 C 535.476945 5.431394 529.717496 -0.318567 521.671346 -0.318567 L 497.902944 -0.318567 C 490.416609 -0.318567 484.287113 5.431394 484.287113 13.477544 L 484.287113 139.388399 C 484.287113 146.684966 490.416609 153.184509 497.902944 153.184509 Z M 660.011985 -0.138287 L 635.873536 -0.138287 C 628.387201 -0.138287 621.887658 5.991209 621.887658 13.667311 L 621.887658 58.727647 L 599.476095 8.894654 C 597.369674 3.514741 592.179528 -0.138287 586.230311 -0.138287 L 562.091862 -0.138287 C 554.415759 -0.138287 548.105984 5.991209 548.105984 13.667311 L 548.105984 141.6751 C 548.105984 149.351202 554.415759 155.480698 562.091862 155.480698 L 586.230311 155.480698 C 594.096181 155.480698 600.225677 149.351202 600.225677 141.6751 L 600.225677 98.588348 L 622.684682 146.125152 C 624.971383 151.457624 629.74404 155.480698 635.873536 155.480698 L 660.011985 155.480698 C 667.877855 155.480698 674.007351 149.351202 674.007351 141.6751 L 674.007351 13.667311 C 674.007351 5.991209 667.877855 -0.138287 660.011985 -0.138287 Z M 700.451477 36.686131 L 690.298906 36.686131 C 686.456111 36.686131 683.609596 33.782685 683.609596 30.366867 L 683.609596 6.180976 C 683.609596 2.765158 686.456111 -0.318567 690.298906 -0.318567 L 700.451477 -0.318567 C 704.095017 -0.318567 707.140788 2.765158 707.140788 6.180976 L 707.140788 30.366867 C 707.140788 33.782685 704.095017 36.686131 700.451477 36.686131 Z M 700.451477 36.686131 " stroke="#b2edef" stroke-width="3.114264" stroke-opacity="1" stroke-miterlimit="4"/></svg>