<svg xmlns="http://www.w3.org/2000/svg" xmlns:xlink="http://www.w3.org/1999/xlink" width="500" zoomAndPan="magnify" viewBox="0 0 375 374.999991" height="500" preserveAspectRatio="xMidYMid meet" version="1.0"><defs><g/><clipPath id="dbb5ca6ef1"><path d="M 0.597656 70 L 318.222656 70 L 318.222656 372.621094 L 0.597656 372.621094 Z M 0.597656 70 " clip-rule="nonzero"/></clipPath><clipPath id="c18686b18b"><path d="M 292 58.359375 L 374.378906 58.359375 L 374.378906 206 L 292 206 Z M 292 58.359375 " clip-rule="nonzero"/></clipPath></defs><g clip-path="url(#dbb5ca6ef1)"><path fill="#000000" d="M 180.640625 372.695312 C 166.976562 372.695312 152.699219 367.394531 137.03125 356.507812 C 123.640625 347.207031 111.738281 335.589844 100.871094 324.417969 C 72.691406 295.457031 46.886719 237.589844 39.070312 214.742188 C 36.324219 216.234375 33.070312 216.34375 29.824219 215.027344 C 25.054688 213.097656 20.488281 208.304688 16.253906 200.800781 C 11.136719 191.730469 6.636719 178.851562 2.894531 162.527344 C -3.066406 136.589844 4.074219 131.085938 7.421875 129.925781 C 10.4375 128.882812 14.125 129.804688 17.804688 132.53125 C 21.441406 135.226562 24.753906 139.46875 27.128906 144.472656 C 28.550781 147.796875 30.4375 149.242188 31.488281 148.917969 C 32.929688 148.484375 34.023438 144.824219 32.378906 135.941406 C 31.640625 131.925781 31.722656 129.503906 32.652344 128.320312 C 33.054688 127.808594 33.597656 127.527344 34.269531 127.488281 C 35.933594 127.386719 37.65625 129.105469 40.257812 131.714844 C 45.496094 136.957031 53.414062 144.886719 67.613281 144.734375 L 70.199219 144.703125 L 67.898438 145.886719 C 67.839844 145.917969 63.671875 148.089844 60.503906 151.003906 C 63.785156 148.636719 67.039062 147.289062 70.8125 147.554688 L 72.761719 147.691406 L 71.082031 148.691406 C 70.894531 148.800781 70.703125 148.917969 70.5 149.035156 C 68.085938 150.457031 65.199219 152.15625 64.015625 155.160156 C 66.84375 151.875 70.804688 149.789062 74.359375 149.882812 L 76.8125 149.945312 L 74.617188 151.042969 C 72.378906 152.160156 70.726562 154.613281 70.082031 156.90625 C 72.96875 152.910156 77.488281 150.6875 80.996094 150.507812 L 84.933594 150.3125 L 81.246094 151.695312 C 78.976562 152.546875 77.398438 155.429688 76.886719 158.316406 C 79.226562 154.582031 81.523438 152.265625 86.335938 151.613281 L 89.230469 151.214844 L 86.738281 152.742188 C 85.476562 153.515625 83.949219 156.253906 83.238281 158.875 C 85.179688 155.5625 88.039062 152.984375 90.972656 152.050781 L 93.148438 151.359375 L 91.613281 153.046875 C 90.757812 153.984375 89.921875 156.179688 89.542969 158.300781 C 90.929688 155.261719 93.207031 152.484375 96.371094 151.875 L 98.472656 151.472656 L 96.902344 152.925781 C 95.300781 154.414062 94.578125 157.257812 94.996094 159.929688 C 96.792969 155.707031 98.363281 152.445312 101.492188 151.574219 L 102.980469 151.160156 L 102.179688 152.484375 C 100.910156 154.574219 99.734375 157.457031 100.621094 160.109375 C 101.863281 155.640625 103.648438 151.332031 106.957031 150.324219 L 108.753906 149.777344 L 107.628906 151.277344 C 105.921875 153.554688 105.746094 155.039062 106.390625 156.40625 C 107.144531 152.453125 108.964844 150.28125 112.417969 149.082031 L 114.144531 148.480469 L 113.132812 150 C 112.320312 151.214844 112.113281 152.988281 112.515625 154.863281 C 112.53125 154.824219 112.542969 154.785156 112.558594 154.746094 C 113.574219 151.84375 114.730469 148.554688 118.777344 147.804688 L 120.054688 147.566406 L 119.425781 148.707031 C 118.410156 150.527344 117.671875 152.074219 117.855469 153.917969 C 117.867188 153.871094 117.878906 153.824219 117.894531 153.78125 C 119.089844 149.890625 119.746094 147.746094 125.195312 146.710938 L 127.554688 146.261719 L 125.699219 147.785156 C 124.378906 148.867188 123.792969 149.933594 123.578125 151.21875 C 125.726562 148.550781 129.1875 146.4375 132.925781 145.617188 C 136.082031 144.917969 139.066406 145.210938 141.519531 146.425781 C 138.777344 140.730469 134.582031 137.429688 128.441406 136.105469 C 122.183594 134.75 114.585938 135.480469 105.785156 136.320312 C 87.175781 138.101562 64.027344 140.316406 41.203125 123.140625 L 39.488281 121.847656 L 41.628906 122.042969 C 50.472656 122.84375 66.558594 117.328125 77.640625 112.359375 C 86.726562 108.289062 95.894531 106.351562 104.886719 106.597656 C 113.058594 106.816406 120.816406 108.898438 127.324219 112.617188 C 136.695312 117.96875 142.84375 126.292969 144.371094 135.617188 C 146.058594 133.109375 147.613281 128.675781 147.777344 123.273438 C 147.9375 118.257812 146.949219 110.800781 141.34375 103.785156 C 132.535156 92.765625 117.914062 85.503906 101.230469 83.863281 C 91.40625 82.898438 80.964844 83.84375 70.207031 86.671875 C 58.171875 89.839844 45.738281 95.378906 33.25 103.136719 L 32.066406 103.871094 L 32.324219 102.503906 C 34.199219 92.558594 41.261719 84.597656 53.320312 78.851562 C 62.875 74.292969 75.519531 71.316406 88.925781 70.449219 C 106.316406 69.332031 122.417969 71.757812 135.484375 77.464844 C 147.464844 82.695312 156.488281 90.597656 160.890625 99.710938 C 167.367188 113.113281 167.558594 145.292969 167.660156 162.582031 C 167.671875 164.429688 167.683594 166.121094 167.699219 167.609375 C 168 194.675781 159.511719 208.777344 154.4375 217.207031 C 154 217.9375 153.585938 218.625 153.203125 219.277344 C 148.929688 226.582031 148.875 233 153.066406 236.445312 C 156.222656 239.042969 157.976562 237.800781 160.007812 236.363281 C 161.511719 235.300781 163.21875 234.09375 165.441406 234.953125 C 166.917969 235.519531 168.257812 236.496094 169.675781 237.53125 C 173.652344 240.425781 177.410156 243.160156 184.058594 237.292969 C 186.609375 235.046875 188.617188 234.101562 190.570312 234.226562 C 193.230469 234.398438 195.632812 236.550781 198.410156 239.730469 L 199.132812 240.554688 L 198.054688 240.738281 C 190.023438 242.117188 184.445312 245.585938 181.476562 251.0625 C 177.894531 257.652344 179.023438 265.558594 181.074219 270.324219 L 179.953125 270.808594 C 177.789062 265.792969 176.605469 257.457031 180.398438 250.476562 C 183.417969 244.910156 188.921875 241.292969 196.765625 239.730469 C 194.109375 236.816406 192.253906 235.5625 190.488281 235.449219 C 188.886719 235.347656 187.15625 236.199219 184.867188 238.214844 C 177.476562 244.730469 172.949219 241.433594 168.953125 238.519531 C 167.601562 237.535156 166.324219 236.605469 165 236.097656 C 163.386719 235.472656 162.152344 236.347656 160.710938 237.363281 C 158.6875 238.800781 156.164062 240.585938 152.285156 237.390625 C 147.59375 233.53125 147.542969 226.527344 152.148438 218.65625 C 152.53125 218 152.945312 217.308594 153.386719 216.574219 C 158.394531 208.261719 166.769531 194.335938 166.472656 167.621094 C 166.457031 166.132812 166.445312 164.441406 166.4375 162.589844 C 166.335938 145.394531 166.140625 113.398438 159.785156 100.242188 C 155.507812 91.390625 146.703125 83.703125 134.992188 78.589844 C 122.101562 72.957031 106.199219 70.566406 89.007812 71.675781 C 75.75 72.527344 63.265625 75.46875 53.847656 79.957031 C 42.738281 85.253906 36.007812 92.445312 33.828125 101.34375 C 46.007812 93.914062 58.132812 88.582031 69.894531 85.488281 C 80.792969 82.617188 91.378906 81.660156 101.351562 82.640625 C 118.367188 84.316406 133.289062 91.742188 142.300781 103.019531 C 148.140625 110.328125 149.171875 118.089844 149.007812 123.3125 C 148.824219 129.144531 147.023438 134.734375 144.414062 137.550781 L 143.5 138.535156 L 143.351562 137.199219 C 142.292969 127.6875 136.226562 119.113281 126.71875 113.683594 C 120.382812 110.066406 112.820312 108.039062 104.855469 107.820312 C 96.042969 107.578125 87.054688 109.484375 78.148438 113.476562 C 74.3125 115.195312 55.503906 123.335938 43.566406 123.351562 C 65.480469 138.949219 87.714844 136.820312 105.667969 135.101562 C 123.292969 133.414062 137.214844 132.082031 143.441406 147.757812 L 144.261719 149.820312 L 142.496094 148.46875 C 140.074219 146.613281 136.769531 146.023438 133.1875 146.8125 C 128.941406 147.75 125.109375 150.441406 123.417969 153.675781 L 122.359375 155.707031 L 122.261719 153.417969 C 122.179688 151.492188 122.378906 149.890625 123.429688 148.40625 C 120.535156 149.351562 120.0625 150.898438 119.070312 154.136719 C 118.871094 154.785156 118.648438 155.523438 118.382812 156.3125 L 117.859375 157.871094 L 117.234375 156.351562 C 116.105469 153.609375 116.640625 151.507812 117.664062 149.414062 C 115.371094 150.425781 114.5625 152.730469 113.710938 155.148438 C 113.5 155.761719 113.277344 156.394531 113.035156 156.996094 L 112.460938 158.402344 L 111.894531 156.996094 C 111.015625 154.8125 110.851562 152.628906 111.390625 150.855469 C 108.960938 152.15625 107.792969 154.328125 107.371094 158.148438 L 107.210938 159.609375 L 106.285156 158.464844 C 104.785156 156.609375 104.429688 154.886719 105.257812 152.886719 C 103.386719 154.941406 102.226562 158.6875 101.386719 162 L 101.046875 163.339844 L 100.28125 162.1875 C 98.394531 159.339844 99.011719 156.160156 100.199219 153.589844 C 98.40625 155.003906 97.222656 157.804688 95.714844 161.386719 L 94.816406 163.511719 L 94.28125 162.050781 C 93.277344 159.308594 93.503906 156.113281 94.726562 153.808594 C 92.109375 155.375 90.257812 158.917969 89.496094 162.230469 L 88.9375 164.636719 L 88.304688 162.25 C 87.726562 160.070312 88.484375 156.394531 89.609375 153.988281 C 86.746094 155.609375 84.164062 158.851562 82.863281 162.59375 L 82.039062 164.949219 L 81.675781 162.484375 C 81.296875 159.9375 82.734375 155.679688 84.535156 153.238281 C 80.722656 154.363281 78.96875 157.082031 76.632812 161.128906 L 75.59375 162.925781 L 75.492188 160.855469 C 75.34375 157.949219 76.390625 154.417969 78.382812 152.246094 C 75.132812 153.292969 71.632812 155.890625 69.765625 159.832031 L 68.859375 161.75 L 68.601562 159.644531 C 68.296875 157.160156 69.617188 153.621094 72.046875 151.363281 C 68.777344 152.15625 65.4375 154.691406 63.382812 158.117188 L 62.148438 160.167969 L 62.242188 157.777344 C 62.421875 153.136719 65.578125 150.621094 68.449219 148.835938 C 64.527344 149.328125 61.050781 151.808594 57.214844 155.332031 L 55.214844 157.160156 L 56.226562 154.648438 C 57.71875 150.957031 62.597656 147.589844 65.375 145.914062 C 52.035156 145.242188 44.183594 137.378906 39.394531 132.578125 C 37.195312 130.378906 35.460938 128.640625 34.339844 128.707031 C 34.023438 128.730469 33.800781 128.84375 33.621094 129.070312 C 33.152344 129.667969 32.765625 131.308594 33.585938 135.714844 C 35.128906 144.050781 34.496094 149.289062 31.84375 150.09375 C 29.917969 150.675781 27.570312 148.621094 26.011719 144.976562 C 21.398438 135.257812 13.40625 129.148438 7.824219 131.085938 C 1.503906 133.28125 0.109375 144.929688 4.085938 162.253906 C 7.964844 179.148438 16.523438 208.316406 30.285156 213.890625 C 33.417969 215.160156 36.539062 214.957031 39.074219 213.3125 L 39.738281 212.882812 L 39.992188 213.632812 C 47.472656 235.875 73.417969 294.441406 101.75 323.566406 C 112.578125 334.691406 124.429688 346.257812 137.730469 355.503906 C 153.570312 366.503906 167.9375 371.730469 181.640625 371.457031 C 195.976562 371.179688 210.34375 365.304688 225.574219 353.496094 C 238.636719 343.367188 250.144531 330.511719 259.390625 320.175781 L 259.882812 319.628906 C 271.132812 307.125 282.503906 291.03125 292.773438 273.078125 C 302.101562 256.773438 310.347656 239.304688 316.640625 222.539062 C 315.445312 221.164062 310.140625 214.875 305.199219 206.28125 C 300.03125 197.292969 294.199219 183.871094 295.789062 170.960938 L 297.003906 171.105469 C 295.457031 183.675781 301.179688 196.828125 306.25 205.648438 C 311.769531 215.246094 317.738281 221.933594 317.800781 222 L 318.046875 222.277344 L 317.917969 222.625 C 311.589844 239.558594 303.261719 257.214844 293.839844 273.6875 C 283.527344 291.714844 272.097656 307.882812 260.792969 320.449219 L 260.304688 320.992188 C 251.027344 331.363281 239.480469 344.269531 226.328125 354.464844 C 210.878906 366.4375 196.269531 372.398438 181.664062 372.683594 C 181.328125 372.691406 180.984375 372.695312 180.640625 372.695312 " fill-opacity="1" fill-rule="nonzero"/></g><path fill="#000000" d="M 159.164062 290.570312 L 159.449219 290.289062 L 159.78125 290.507812 C 169.367188 296.859375 179.917969 298.835938 188.003906 295.800781 C 193.855469 293.601562 198.5 292.152344 204.949219 293.585938 C 208.910156 294.464844 218.992188 295.53125 225.675781 292.179688 C 222.964844 293 220.050781 293.273438 217.414062 293.273438 C 216.523438 293.273438 215.664062 293.242188 214.855469 293.191406 C 209.289062 292.851562 203.03125 291.375 198.523438 289.339844 C 193.171875 286.925781 187.988281 285.847656 183.261719 285.5625 C 182.917969 287.078125 182.230469 288.351562 181.066406 289.15625 C 174.410156 293.765625 166.519531 292.335938 161.359375 289.460938 L 160.519531 288.992188 L 161.394531 288.585938 C 164.332031 287.234375 172.304688 284.125 182.472656 284.542969 C 183.175781 279.46875 180.441406 271.820312 179.957031 270.519531 C 177.699219 270.6875 175.382812 269.589844 172.941406 268.421875 C 169.816406 266.929688 166.582031 265.382812 162.976562 266.230469 C 158.421875 267.292969 152.929688 272.039062 150.777344 274.027344 C 146.222656 278.246094 132.355469 290.28125 127.988281 291.753906 L 126.972656 292.09375 C 129.8125 292.746094 136.136719 293.59375 142.457031 293.746094 C 150.980469 293.945312 156.914062 292.820312 159.164062 290.570312 " fill-opacity="1" fill-rule="nonzero"/><path fill="#000000" d="M 162.730469 289.066406 C 167.617188 291.472656 174.589844 292.445312 180.507812 288.351562 C 181.417969 287.71875 181.980469 286.722656 182.285156 285.511719 C 173.324219 285.171875 166.125 287.625 162.730469 289.066406 " fill-opacity="1" fill-rule="nonzero"/><path fill="#000000" d="M 183.433594 284.589844 C 188.238281 284.890625 193.496094 286 198.925781 288.449219 C 207.417969 292.277344 222.820312 294.484375 230.125 288.890625 C 229.726562 288.886719 229.804688 288.953125 229.105469 288.84375 C 226.042969 288.417969 222.125 284.554688 217.597656 280.09375 C 210.929688 273.53125 202.65625 265.378906 193.546875 265.378906 C 193.429688 265.378906 193.308594 265.378906 193.191406 265.382812 C 189.765625 265.464844 187.429688 266.9375 185.367188 268.242188 C 183.9375 269.148438 182.570312 270.007812 180.949219 270.371094 C 181.613281 272.175781 184.121094 279.402344 183.433594 284.589844 " fill-opacity="1" fill-rule="nonzero"/><path fill="#000000" d="M 230.015625 290.171875 C 227.199219 293.265625 222.585938 295.015625 216.300781 295.378906 C 211.410156 295.664062 206.730469 294.988281 204.734375 294.542969 C 198.550781 293.171875 194.042969 294.578125 188.351562 296.71875 C 185.746094 297.695312 182.894531 298.175781 179.914062 298.175781 C 173.40625 298.175781 166.257812 295.894531 159.5625 291.539062 C 153.550781 296.765625 132.519531 294.40625 126.648438 293.023438 C 126.980469 293.417969 127.410156 293.90625 127.746094 294.226562 C 130.96875 297.316406 138.527344 304.558594 148.441406 311 C 160.472656 318.8125 171.820312 322.773438 182.191406 322.773438 C 182.535156 322.773438 182.871094 322.769531 183.207031 322.757812 C 197.109375 322.410156 208.890625 313.890625 216.328125 306.804688 C 222.992188 300.457031 228.175781 292.980469 230.035156 290.160156 C 230.03125 290.164062 230.023438 290.167969 230.015625 290.171875 " fill-opacity="1" fill-rule="nonzero"/><path fill="#000000" d="M 271.34375 137.949219 L 271.777344 139.097656 C 258.320312 144.160156 245.148438 154.257812 237.402344 165.453125 L 236.394531 164.753906 C 244.273438 153.367188 257.664062 143.09375 271.34375 137.949219 Z M 252.414062 181.710938 L 251.242188 181.351562 C 254.523438 170.691406 262.910156 153.90625 271.269531 144.261719 L 272.195312 145.0625 C 263.941406 154.582031 255.65625 171.175781 252.414062 181.710938 Z M 226.167969 159.203125 C 226.4375 162.152344 229.324219 170.085938 234.058594 177.328125 C 238.179688 183.632812 244.917969 191.34375 253.613281 192.269531 C 259.875 192.933594 265.195312 186.1875 268.558594 180.410156 C 272.503906 173.625 275.5 165.160156 276.710938 159.78125 C 278.246094 152.976562 279.484375 143.152344 278.359375 136.003906 C 277.683594 131.710938 276.234375 131.753906 272.363281 131.859375 C 271.726562 131.878906 271.003906 131.898438 270.238281 131.898438 C 269.105469 131.898438 264.644531 132.1875 258.660156 132.933594 C 250.671875 135.632812 242.828125 138.511719 236.925781 142.109375 C 228.96875 146.957031 225.550781 152.390625 226.167969 159.203125 " fill-opacity="1" fill-rule="nonzero"/><path fill="#000000" d="M 341.441406 164.753906 L 340.429688 165.453125 C 332.6875 154.257812 319.515625 144.160156 306.054688 139.097656 L 306.488281 137.949219 C 320.167969 143.09375 333.5625 153.367188 341.441406 164.753906 Z M 325.417969 181.710938 C 322.175781 171.175781 313.890625 154.582031 305.636719 145.0625 L 306.5625 144.261719 C 314.921875 153.90625 323.3125 170.691406 326.59375 181.351562 Z M 305.53125 131.859375 C 304.96875 131.84375 304.457031 131.832031 303.992188 131.832031 C 301.253906 131.832031 300.113281 132.332031 299.535156 136.003906 C 298.410156 143.152344 299.648438 152.972656 301.183594 159.78125 C 302.394531 165.160156 305.390625 173.625 309.335938 180.410156 C 312.699219 186.1875 318.015625 192.929688 324.28125 192.269531 C 332.976562 191.34375 339.714844 183.632812 343.835938 177.328125 C 348.570312 170.085938 351.457031 162.152344 351.726562 159.203125 C 352.34375 152.390625 348.925781 146.957031 340.96875 142.109375 C 335.066406 138.511719 327.222656 135.632812 319.230469 132.933594 C 313.25 132.1875 308.789062 131.898438 307.65625 131.898438 C 306.890625 131.898438 306.167969 131.878906 305.53125 131.859375 " fill-opacity="1" fill-rule="nonzero"/><path fill="#000000" d="M 289.082031 124.171875 C 288.328125 124.171875 287.628906 123.902344 287.046875 123.4375 C 285.035156 130.777344 284.015625 144.574219 284.441406 158.785156 C 284.863281 172.957031 286.578125 184.003906 288.949219 187.984375 C 290.796875 184.875 292.253906 177.457031 293 167.601562 C 293.125 166.308594 293.367188 161.789062 293.453125 158.785156 C 293.875 144.679688 292.871094 130.976562 290.894531 123.601562 C 290.359375 123.964844 289.738281 124.171875 289.082031 124.171875 " fill-opacity="1" fill-rule="nonzero"/><path fill="#000000" d="M 271.996094 114 L 271.121094 114.859375 C 257.792969 101.304688 241.367188 90.34375 232.035156 86.527344 L 232.5 85.398438 C 239.878906 88.410156 247.902344 93.863281 253.328125 97.902344 C 260.058594 102.910156 266.863281 108.777344 271.996094 114 Z M 271.496094 120.140625 C 253.925781 112.875 237.371094 113.1875 231.070312 113.660156 C 230.757812 113.683594 230.632812 113.695312 230.550781 113.695312 L 230.550781 112.46875 C 230.609375 112.46875 230.753906 112.457031 230.976562 112.441406 C 237.367188 111.960938 254.152344 111.640625 271.96875 119.007812 Z M 248.113281 82.304688 C 235.152344 72.339844 227.640625 71.117188 224.75 71.117188 C 224.640625 71.117188 224.535156 71.117188 224.4375 71.121094 C 222.445312 71.1875 221.011719 71.824219 220.285156 72.964844 C 218.257812 76.171875 220.386719 79.832031 222.855469 84.070312 C 224.066406 86.15625 225.320312 88.3125 226.132812 90.558594 C 229.605469 100.121094 227.117188 104.691406 224.71875 109.109375 C 224.035156 110.355469 223.335938 111.648438 222.792969 113.03125 C 221.265625 116.910156 221.480469 119.996094 223.433594 122.207031 C 226.976562 126.214844 236.375 127.699219 250.609375 126.503906 C 261.523438 125.578125 273.414062 123.242188 281.1875 121.289062 C 280.421875 119.636719 278.238281 115.003906 274.921875 108.976562 C 265.773438 97.960938 256.667969 88.886719 248.113281 82.304688 " fill-opacity="1" fill-rule="nonzero"/><path fill="#000000" d="M 324.503906 97.902344 C 329.9375 93.863281 337.953125 88.410156 345.335938 85.398438 L 345.796875 86.527344 C 336.464844 90.34375 320.039062 101.304688 306.710938 114.859375 L 305.835938 114 C 310.96875 108.777344 317.773438 102.910156 324.503906 97.902344 Z M 347.28125 112.46875 L 347.28125 113.695312 C 347.199219 113.695312 347.074219 113.683594 346.761719 113.660156 C 340.460938 113.1875 323.90625 112.875 306.335938 120.140625 L 305.867188 119.007812 C 323.683594 111.640625 340.464844 111.960938 346.855469 112.441406 C 347.082031 112.457031 347.222656 112.46875 347.28125 112.46875 Z M 327.285156 126.503906 C 341.519531 127.699219 350.917969 126.214844 354.460938 122.207031 C 356.414062 119.996094 356.628906 116.910156 355.101562 113.03125 C 354.558594 111.648438 353.855469 110.355469 353.175781 109.105469 C 350.777344 104.691406 348.289062 100.121094 351.761719 90.558594 C 352.574219 88.3125 353.828125 86.15625 355.039062 84.070312 C 357.507812 79.832031 359.636719 76.171875 357.609375 72.964844 C 356.882812 71.824219 355.449219 71.1875 353.457031 71.121094 C 350.816406 71.035156 343.234375 71.953125 329.78125 82.304688 C 321.226562 88.886719 312.121094 97.964844 302.972656 108.976562 C 299.652344 115.003906 297.472656 119.636719 296.707031 121.289062 C 304.480469 123.238281 316.371094 125.578125 327.285156 126.503906 " fill-opacity="1" fill-rule="nonzero"/><g clip-path="url(#c18686b18b)"><path fill="#000000" d="M 294.679688 158.820312 C 294.589844 161.847656 294.441406 164.726562 294.246094 167.414062 C 295.945312 171.632812 308.429688 201.816406 319.144531 205.515625 C 323.003906 206.847656 328.753906 205.140625 335.339844 200.710938 C 341.679688 196.449219 348.230469 189.980469 353.316406 182.960938 C 358.113281 176.339844 361.359375 169.640625 362.710938 163.59375 C 364.242188 156.722656 363.3125 150.992188 359.9375 146.558594 C 356.378906 141.878906 346.792969 137.882812 332.21875 135.007812 C 329.933594 134.558594 327.679688 134.164062 325.523438 133.824219 C 331.464844 135.96875 337.078125 138.300781 341.605469 141.0625 C 349.890625 146.113281 353.601562 152.085938 352.945312 159.316406 C 352.40625 165.316406 341.539062 191.667969 324.414062 193.488281 C 324.085938 193.523438 323.757812 193.539062 323.433594 193.539062 C 318.273438 193.539062 313.058594 189.242188 308.277344 181.027344 C 304.261719 174.128906 301.21875 165.519531 299.988281 160.046875 C 298.425781 153.128906 297.167969 143.132812 298.324219 135.8125 C 299.167969 130.453125 301.578125 130.523438 305.566406 130.636719 C 306.226562 130.65625 306.910156 130.675781 307.65625 130.675781 C 308.484375 130.675781 310.644531 130.800781 313.671875 131.082031 C 309.375 129.660156 304.957031 128.191406 300.84375 126.636719 L 295.664062 124.683594 L 301.148438 125.457031 C 306.566406 126.222656 311.515625 127.019531 316.304688 127.796875 C 327.851562 129.664062 337.820312 131.277344 347.988281 131.277344 C 358.253906 131.277344 364.53125 128.605469 366.644531 123.34375 C 368.765625 118.066406 367.140625 112.753906 365.570312 107.621094 C 364.96875 105.664062 364.355469 103.640625 363.945312 101.640625 C 362.21875 93.128906 363.59375 87.144531 368.679688 80.984375 C 373.269531 75.433594 375.101562 70.648438 374.128906 66.757812 C 373.09375 62.609375 369.0625 60.757812 368.261719 60.429688 C 359.703125 56.898438 350.621094 57.890625 341.273438 63.382812 C 333.722656 67.816406 325.988281 75.167969 318.273438 85.226562 C 313.625 91.289062 309.546875 97.628906 306.207031 103.296875 C 314 94.398438 321.714844 86.964844 329.03125 81.335938 C 338.730469 73.875 347.644531 69.703125 353.492188 69.898438 C 355.914062 69.972656 357.691406 70.8125 358.644531 72.3125 C 361.070312 76.144531 358.65625 80.292969 356.097656 84.6875 C 354.917969 86.726562 353.691406 88.832031 352.914062 90.976562 C 349.632812 100.019531 351.878906 104.152344 354.253906 108.523438 C 354.953125 109.804688 355.671875 111.128906 356.246094 112.585938 C 357.953125 116.921875 357.660156 120.433594 355.378906 123.019531 C 351.515625 127.390625 342.027344 128.96875 327.183594 127.722656 C 315.851562 126.769531 303.488281 124.292969 295.695312 122.296875 L 294.992188 122.121094 L 295.285156 121.457031 C 295.320312 121.382812 296.605469 118.484375 298.929688 113.960938 C 296.621094 116.882812 294.316406 119.921875 292.023438 123.070312 C 294.097656 130.605469 295.113281 144.253906 294.679688 158.820312 " fill-opacity="1" fill-rule="nonzero"/></g><path fill="#000000" d="M 289.082031 123.191406 C 290.570312 123.191406 291.78125 121.671875 291.78125 119.800781 C 291.78125 117.929688 290.570312 116.40625 289.082031 116.40625 C 287.59375 116.40625 286.382812 117.929688 286.382812 119.800781 C 286.382812 121.671875 287.59375 123.191406 289.082031 123.191406 " fill-opacity="1" fill-rule="nonzero"/><path fill="#000000" d="M 282.609375 121.457031 L 282.902344 122.121094 L 282.203125 122.296875 C 274.40625 124.292969 262.042969 126.769531 250.710938 127.722656 C 235.867188 128.972656 226.378906 127.390625 222.515625 123.019531 C 220.234375 120.433594 219.941406 116.921875 221.648438 112.585938 C 222.222656 111.128906 222.941406 109.804688 223.640625 108.523438 C 226.015625 104.152344 228.261719 100.019531 224.980469 90.976562 C 224.203125 88.832031 222.976562 86.726562 221.792969 84.6875 C 219.234375 80.292969 216.824219 76.144531 219.25 72.3125 C 220.203125 70.8125 221.980469 69.972656 224.402344 69.898438 C 230.25 69.707031 239.164062 73.875 248.863281 81.335938 C 256.179688 86.964844 263.894531 94.398438 271.6875 103.296875 C 268.34375 97.621094 264.261719 91.277344 259.609375 85.210938 C 251.898438 75.15625 244.160156 67.808594 236.613281 63.378906 C 227.269531 57.890625 218.191406 56.898438 209.632812 60.429688 C 208.832031 60.757812 204.800781 62.609375 203.765625 66.757812 C 202.792969 70.648438 204.625 75.433594 209.214844 80.984375 C 214.304688 87.144531 215.671875 93.128906 213.949219 101.640625 C 213.539062 103.640625 212.921875 105.664062 212.324219 107.621094 C 209.128906 118.066406 210.207031 120.746094 211.25 123.34375 C 213.363281 128.605469 219.640625 131.277344 229.90625 131.277344 C 240.074219 131.277344 250.042969 129.664062 261.589844 127.796875 C 266.375 127.019531 271.328125 126.222656 276.746094 125.457031 L 282.226562 124.683594 L 277.050781 126.636719 C 272.9375 128.191406 268.519531 129.660156 264.222656 131.082031 C 267.246094 130.800781 269.410156 130.675781 270.238281 130.675781 C 270.984375 130.675781 271.667969 130.65625 272.328125 130.636719 C 276.316406 130.523438 278.730469 130.453125 279.570312 135.8125 C 280.726562 143.132812 279.46875 153.128906 277.90625 160.046875 C 276.671875 165.519531 273.628906 174.128906 269.617188 181.027344 C 264.535156 189.761719 258.953125 194.070312 253.480469 193.488281 C 236.355469 191.667969 225.488281 165.316406 224.949219 159.316406 C 224.292969 152.085938 228.003906 146.113281 236.285156 141.0625 C 240.816406 138.300781 246.429688 135.96875 252.371094 133.824219 C 250.214844 134.164062 247.960938 134.558594 245.675781 135.007812 C 231.101562 137.882812 221.515625 141.878906 217.957031 146.558594 C 214.480469 151.132812 213.601562 157.097656 215.355469 164.289062 C 216.898438 170.617188 220.421875 177.5625 225.546875 184.375 C 230.664062 191.171875 237.085938 197.34375 243.175781 201.308594 C 249.523438 205.445312 255.050781 206.941406 258.730469 205.523438 C 267.308594 202.210938 281.421875 174.152344 283.625 167.097656 C 283.441406 164.496094 283.300781 161.730469 283.214844 158.820312 C 282.78125 144.253906 283.796875 130.605469 285.871094 123.070312 C 283.574219 119.921875 281.273438 116.882812 278.964844 113.964844 C 281.289062 118.484375 282.578125 121.382812 282.609375 121.457031 " fill-opacity="1" fill-rule="nonzero"/><path fill="#000000" d="M 286.078125 113.898438 C 284.894531 105.160156 282.375 91.988281 278.851562 81.238281 C 275.785156 71.886719 270.816406 60.90625 264.507812 61.683594 L 264.355469 60.464844 C 270.078125 59.761719 275.351562 66.621094 280.015625 80.859375 C 283.5625 91.6875 286.101562 104.941406 287.296875 113.734375 L 286.078125 113.898438 " fill-opacity="1" fill-rule="nonzero"/><path fill="#000000" d="M 291.402344 113.898438 L 290.191406 113.734375 C 291.382812 104.941406 293.921875 91.6875 297.46875 80.859375 C 302.132812 66.621094 307.398438 59.761719 313.132812 60.464844 L 312.980469 61.683594 C 306.667969 60.898438 301.699219 71.886719 298.632812 81.238281 C 295.113281 91.988281 292.589844 105.160156 291.402344 113.898438 " fill-opacity="1" fill-rule="nonzero"/><g fill="#000000" fill-opacity="1"><g transform="translate(19.888136, 48.723221)"><g><path d="M 17.59375 -14.46875 C 17.65625 -14.363281 17.734375 -14.238281 17.828125 -14.09375 L 18.046875 -13.65625 C 18.242188 -13.257812 18.410156 -12.929688 18.546875 -12.671875 C 18.984375 -11.835938 19.351562 -11.082031 19.65625 -10.40625 C 20.539062 -8.40625 21.003906 -6.703125 21.046875 -5.296875 L 21.046875 -5.125 C 21.046875 -1.570312 18.414062 0.203125 13.15625 0.203125 C 12.507812 0.203125 11.828125 0.171875 11.109375 0.109375 L 10.875 0.09375 C 8.269531 -0.113281 6.222656 -0.921875 4.734375 -2.328125 C 3.691406 -3.273438 2.742188 -4.785156 1.890625 -6.859375 C 1.566406 -7.609375 1.273438 -8.476562 1.015625 -9.46875 L 0.71875 -10.78125 L 0.4375 -12.140625 L 0.390625 -12.296875 L 0.34375 -12.46875 L 0.34375 -12.609375 C 0.34375 -12.691406 0.351562 -12.769531 0.375 -12.84375 C 0.445312 -13.15625 0.722656 -13.335938 1.203125 -13.390625 L 1.3125 -13.390625 C 1.664062 -13.390625 1.921875 -13.257812 2.078125 -13 C 2.140625 -12.894531 2.191406 -12.765625 2.234375 -12.609375 L 2.328125 -12.40625 L 2.390625 -12.25 C 2.597656 -11.695312 2.882812 -10.910156 3.25 -9.890625 L 3.640625 -8.71875 L 4.0625 -7.515625 C 4.945312 -5.285156 6.148438 -3.648438 7.671875 -2.609375 C 8.148438 -2.296875 8.644531 -2.03125 9.15625 -1.8125 C 9.738281 -1.59375 10.273438 -1.484375 10.765625 -1.484375 L 10.84375 -1.484375 C 12.851562 -1.546875 13.859375 -2.445312 13.859375 -4.1875 L 13.859375 -4.5 C 13.691406 -7.039062 11.679688 -11.46875 7.828125 -17.78125 C 7.515625 -18.25 7.023438 -19.125 6.359375 -20.40625 C 5.597656 -21.8125 4.835938 -23.25 4.078125 -24.71875 C 2.054688 -28.726562 0.835938 -31.476562 0.421875 -32.96875 C 0.140625 -33.988281 0 -34.914062 0 -35.75 C 0 -37.863281 0.882812 -39.445312 2.65625 -40.5 C 4.082031 -41.332031 5.863281 -41.75 8 -41.75 C 8.644531 -41.75 9.316406 -41.710938 10.015625 -41.640625 C 11.179688 -41.515625 12.164062 -41.0625 12.96875 -40.28125 C 14.65625 -38.6875 15.679688 -36.46875 16.046875 -33.625 L 16.0625 -33.515625 L 16.0625 -33.390625 C 16.082031 -33.335938 16.09375 -33.289062 16.09375 -33.25 C 16.09375 -33.207031 16.082031 -33.164062 16.0625 -33.125 C 15.976562 -32.90625 15.789062 -32.796875 15.5 -32.796875 L 15.453125 -32.796875 C 15.273438 -32.796875 15.132812 -32.867188 15.03125 -33.015625 C 15.007812 -33.054688 14.988281 -33.128906 14.96875 -33.234375 L 14.921875 -33.34375 L 14.90625 -33.421875 C 14.820312 -33.671875 14.726562 -33.988281 14.625 -34.375 L 14.375 -35.328125 C 14.15625 -36.078125 13.910156 -36.691406 13.640625 -37.171875 C 13.347656 -37.671875 12.957031 -38.210938 12.46875 -38.796875 C 11.476562 -39.773438 10.21875 -40.316406 8.6875 -40.421875 C 8.507812 -40.429688 8.332031 -40.4375 8.15625 -40.4375 C 7.800781 -40.4375 7.457031 -40.410156 7.125 -40.359375 C 6.945312 -40.328125 6.769531 -40.296875 6.59375 -40.265625 C 6.539062 -40.253906 6.484375 -40.238281 6.421875 -40.21875 L 6.359375 -40.203125 L 6.3125 -40.203125 C 5.664062 -39.984375 5.195312 -39.609375 4.90625 -39.078125 C 4.78125 -38.828125 4.71875 -38.570312 4.71875 -38.3125 C 4.71875 -38.082031 4.78125 -37.847656 4.90625 -37.609375 L 5.5 -36.71875 L 6.09375 -35.8125 C 6.539062 -35.113281 6.90625 -34.523438 7.1875 -34.046875 C 7.539062 -33.367188 8.007812 -32.460938 8.59375 -31.328125 L 10 -28.609375 L 12.859375 -23.296875 L 15.734375 -17.96875 L 16.6875 -16.21875 C 17.0625 -15.53125 17.363281 -14.945312 17.59375 -14.46875 Z M 17.59375 -14.46875 "/></g></g><g transform="translate(45.315704, 48.723221)"><g><path d="M 14.578125 -14.890625 C 14.554688 -16.054688 14.570312 -17.046875 14.625 -17.859375 C 14.738281 -20.523438 14.222656 -23.375 13.078125 -26.40625 C 12.710938 -27.382812 12.085938 -27.644531 11.203125 -27.1875 C 10.117188 -26.59375 9.101562 -25.765625 8.15625 -24.703125 C 7.800781 -24.328125 7.609375 -23.851562 7.578125 -23.28125 L 7.578125 -22.515625 L 7.65625 -21.75 C 7.945312 -17.125 8.054688 -13.125 7.984375 -9.75 C 7.953125 -8.8125 7.960938 -7.753906 8.015625 -6.578125 L 8.21875 -3.375 L 8.265625 -2.546875 L 8.265625 -1.703125 C 8.242188 -1.078125 8.125 -0.601562 7.90625 -0.28125 L 7.5625 0.375 L 7.234375 1.046875 C 6.972656 1.585938 6.671875 1.984375 6.328125 2.234375 C 5.554688 2.835938 4.609375 2.78125 3.484375 2.0625 C 3.304688 1.945312 3.050781 1.804688 2.71875 1.640625 L 1.921875 1.265625 C 0.960938 0.742188 0.585938 -0.0351562 0.796875 -1.078125 C 0.835938 -1.347656 0.84375 -1.65625 0.8125 -2 L 0.65625 -2.890625 C 0.507812 -3.609375 0.414062 -4.5 0.375 -5.5625 L 0.328125 -6.921875 L 0.28125 -8.265625 C 0.09375 -11.328125 0.03125 -14.941406 0.09375 -19.109375 L 0.21875 -24.53125 L 0.375 -29.9375 L 0.390625 -32.5 L 0.34375 -35.09375 C 0.300781 -37.226562 0.332031 -38.9375 0.4375 -40.21875 C 0.46875 -40.800781 0.816406 -41.320312 1.484375 -41.78125 C 2.171875 -42.25 2.851562 -42.414062 3.53125 -42.28125 C 4.539062 -42.070312 5.195312 -41.785156 5.5 -41.421875 C 5.757812 -41.148438 6.035156 -40.460938 6.328125 -39.359375 C 6.785156 -37.710938 7.082031 -35.65625 7.21875 -33.1875 L 7.328125 -30.046875 C 7.378906 -28.804688 7.441406 -27.773438 7.515625 -26.953125 L 7.515625 -26.765625 L 7.546875 -26.5625 C 7.566406 -26.414062 7.601562 -26.328125 7.65625 -26.296875 C 7.75 -26.242188 7.859375 -26.257812 7.984375 -26.34375 L 8.109375 -26.484375 L 8.234375 -26.609375 C 10.328125 -28.347656 12.570312 -28.597656 14.96875 -27.359375 C 15.226562 -27.210938 15.410156 -27.03125 15.515625 -26.8125 C 16.203125 -25.269531 16.832031 -23.789062 17.40625 -22.375 C 18.882812 -18.800781 19.351562 -13.6875 18.8125 -7.03125 L 18.765625 -6.09375 L 18.671875 -5.15625 C 18.554688 -4.425781 18.3125 -3.8125 17.9375 -3.3125 C 17.695312 -2.988281 17.359375 -2.773438 16.921875 -2.671875 L 16.375 -2.59375 L 15.84375 -2.484375 C 15.625 -2.421875 15.4375 -2.554688 15.28125 -2.890625 L 15.109375 -3.359375 L 15 -3.828125 C 14.832031 -4.753906 14.734375 -5.910156 14.703125 -7.296875 L 14.6875 -9.046875 L 14.640625 -10.8125 L 14.625 -11.359375 L 14.640625 -11.90625 Z M 14.578125 -14.890625 "/></g></g><g transform="translate(69.318452, 48.723221)"><g><path d="M 9.46875 -19.109375 C 9.625 -19.566406 9.789062 -20.128906 9.96875 -20.796875 L 10.375 -22.53125 C 10.707031 -23.9375 11.164062 -25.023438 11.75 -25.796875 L 11.84375 -25.9375 L 11.875 -26.0625 C 12.007812 -27.363281 12.535156 -28.070312 13.453125 -28.1875 C 14.015625 -28.25 14.644531 -28.015625 15.34375 -27.484375 C 16.03125 -26.960938 16.460938 -26.414062 16.640625 -25.84375 L 16.796875 -25.296875 L 16.9375 -24.703125 C 17.03125 -24.253906 17.066406 -23.816406 17.046875 -23.390625 C 16.554688 -21.765625 15.460938 -20.5 13.765625 -19.59375 C 13.265625 -19.3125 12.664062 -19.097656 11.96875 -18.953125 L 11 -18.765625 L 10.03125 -18.609375 C 9.789062 -18.566406 9.625 -18.570312 9.53125 -18.625 C 9.382812 -18.6875 9.363281 -18.847656 9.46875 -19.109375 Z M 24.90625 -13.859375 C 24.632812 -14.054688 24.390625 -14.066406 24.171875 -13.890625 L 23.90625 -13.640625 L 23.671875 -13.34375 L 22.59375 -12.125 L 21.53125 -10.890625 C 20.675781 -9.972656 19.851562 -9.28125 19.0625 -8.8125 L 18.171875 -8.265625 L 17.25 -7.765625 C 16.5 -7.421875 15.828125 -7.335938 15.234375 -7.515625 C 13.640625 -7.984375 12.238281 -9.019531 11.03125 -10.625 C 9.832031 -12.21875 9.1875 -13.863281 9.09375 -15.5625 C 9.039062 -16.6875 9.46875 -17.265625 10.375 -17.296875 C 13.613281 -17.410156 16.429688 -18.535156 18.828125 -20.671875 C 19.742188 -21.484375 20.328125 -22.5 20.578125 -23.71875 C 20.828125 -24.894531 20.664062 -25.875 20.09375 -26.65625 C 18.238281 -29.113281 16.019531 -30.414062 13.4375 -30.5625 L 13.109375 -30.59375 L 12.859375 -30.640625 L 12.453125 -30.703125 L 11.375 -30.78125 L 10.296875 -30.796875 C 9.492188 -30.753906 8.835938 -30.488281 8.328125 -30 C 7.316406 -29.039062 6.28125 -27.765625 5.21875 -26.171875 C 1.738281 -20.992188 0.273438 -16.398438 0.828125 -12.390625 C 1.503906 -7.441406 3.316406 -3.90625 6.265625 -1.78125 C 8.046875 -0.488281 10 0.0976562 12.125 -0.015625 C 14.207031 -0.117188 15.910156 -0.863281 17.234375 -2.25 C 20.328125 -5.5625 22.800781 -9.035156 24.65625 -12.671875 L 24.875 -12.90625 L 25.125 -13.203125 C 25.269531 -13.421875 25.195312 -13.640625 24.90625 -13.859375 Z M 24.90625 -13.859375 "/></g></g><g transform="translate(99.042403, 48.723221)"><g><path d="M 9.46875 -19.109375 C 9.625 -19.566406 9.789062 -20.128906 9.96875 -20.796875 L 10.375 -22.53125 C 10.707031 -23.9375 11.164062 -25.023438 11.75 -25.796875 L 11.84375 -25.9375 L 11.875 -26.0625 C 12.007812 -27.363281 12.535156 -28.070312 13.453125 -28.1875 C 14.015625 -28.25 14.644531 -28.015625 15.34375 -27.484375 C 16.03125 -26.960938 16.460938 -26.414062 16.640625 -25.84375 L 16.796875 -25.296875 L 16.9375 -24.703125 C 17.03125 -24.253906 17.066406 -23.816406 17.046875 -23.390625 C 16.554688 -21.765625 15.460938 -20.5 13.765625 -19.59375 C 13.265625 -19.3125 12.664062 -19.097656 11.96875 -18.953125 L 11 -18.765625 L 10.03125 -18.609375 C 9.789062 -18.566406 9.625 -18.570312 9.53125 -18.625 C 9.382812 -18.6875 9.363281 -18.847656 9.46875 -19.109375 Z M 24.90625 -13.859375 C 24.632812 -14.054688 24.390625 -14.066406 24.171875 -13.890625 L 23.90625 -13.640625 L 23.671875 -13.34375 L 22.59375 -12.125 L 21.53125 -10.890625 C 20.675781 -9.972656 19.851562 -9.28125 19.0625 -8.8125 L 18.171875 -8.265625 L 17.25 -7.765625 C 16.5 -7.421875 15.828125 -7.335938 15.234375 -7.515625 C 13.640625 -7.984375 12.238281 -9.019531 11.03125 -10.625 C 9.832031 -12.21875 9.1875 -13.863281 9.09375 -15.5625 C 9.039062 -16.6875 9.46875 -17.265625 10.375 -17.296875 C 13.613281 -17.410156 16.429688 -18.535156 18.828125 -20.671875 C 19.742188 -21.484375 20.328125 -22.5 20.578125 -23.71875 C 20.828125 -24.894531 20.664062 -25.875 20.09375 -26.65625 C 18.238281 -29.113281 16.019531 -30.414062 13.4375 -30.5625 L 13.109375 -30.59375 L 12.859375 -30.640625 L 12.453125 -30.703125 L 11.375 -30.78125 L 10.296875 -30.796875 C 9.492188 -30.753906 8.835938 -30.488281 8.328125 -30 C 7.316406 -29.039062 6.28125 -27.765625 5.21875 -26.171875 C 1.738281 -20.992188 0.273438 -16.398438 0.828125 -12.390625 C 1.503906 -7.441406 3.316406 -3.90625 6.265625 -1.78125 C 8.046875 -0.488281 10 0.0976562 12.125 -0.015625 C 14.207031 -0.117188 15.910156 -0.863281 17.234375 -2.25 C 20.328125 -5.5625 22.800781 -9.035156 24.65625 -12.671875 L 24.875 -12.90625 L 25.125 -13.203125 C 25.269531 -13.421875 25.195312 -13.640625 24.90625 -13.859375 Z M 24.90625 -13.859375 "/></g></g><g transform="translate(128.766354, 48.723221)"><g><path d="M 20.5625 -18.5625 L 20.78125 -18.546875 C 20.925781 -18.515625 21 -18.429688 21 -18.296875 C 21.007812 -18.148438 20.941406 -18.066406 20.796875 -18.046875 L 20.609375 -18.015625 L 20.40625 -18.046875 C 19.789062 -18.097656 19.0625 -18.066406 18.21875 -17.953125 L 17.140625 -17.796875 L 16.046875 -17.640625 C 15.472656 -17.585938 15.09375 -17.269531 14.90625 -16.6875 C 14.625 -15.789062 14.148438 -14.65625 13.484375 -13.28125 L 12.6875 -11.625 L 11.953125 -9.921875 L 11.421875 -8.65625 L 10.84375 -7.40625 C 10.40625 -6.394531 10.097656 -5.535156 9.921875 -4.828125 C 9.765625 -4.242188 9.988281 -3.953125 10.59375 -3.953125 C 12.96875 -3.960938 16.019531 -3.8125 19.75 -3.5 C 20.113281 -3.476562 20.53125 -3.367188 21 -3.171875 L 21.59375 -2.9375 L 22.1875 -2.671875 C 22.550781 -2.523438 22.738281 -2.304688 22.75 -2.015625 C 22.769531 -1.609375 22.601562 -1.332031 22.25 -1.1875 L 21.28125 -0.796875 L 20.296875 -0.4375 C 19.546875 -0.226562 18.832031 -0.175781 18.15625 -0.28125 C 17.03125 -0.445312 15.5625 -0.445312 13.75 -0.28125 L 11.546875 -0.0625 C 10.703125 0.0078125 9.96875 0.0351562 9.34375 0.015625 L 7.6875 0.0625 L 6.046875 0.09375 C 4.773438 0.0625 3.703125 -0.144531 2.828125 -0.53125 C 1.742188 -1 1.113281 -1.976562 0.9375 -3.46875 C 0.757812 -4.914062 0.976562 -6.40625 1.59375 -7.9375 C 1.832031 -8.53125 2.148438 -9.203125 2.546875 -9.953125 L 3.65625 -11.921875 L 4.90625 -14.03125 L 6.15625 -16.125 C 6.226562 -16.257812 6.285156 -16.378906 6.328125 -16.484375 C 6.378906 -16.628906 6.390625 -16.742188 6.359375 -16.828125 C 6.296875 -16.960938 6.1875 -17.03125 6.03125 -17.03125 L 5.8125 -17.015625 L 5.59375 -16.96875 L 4.53125 -16.921875 L 3.484375 -16.875 C 2.648438 -16.863281 1.960938 -16.789062 1.421875 -16.65625 C 0.953125 -16.550781 0.664062 -16.679688 0.5625 -17.046875 C 0.507812 -17.242188 0.5625 -17.363281 0.71875 -17.40625 L 0.96875 -17.421875 L 1.15625 -17.46875 C 3.332031 -18.195312 5.253906 -18.578125 6.921875 -18.609375 C 7.304688 -18.609375 7.597656 -18.757812 7.796875 -19.0625 C 9.390625 -21.5625 10.539062 -23.566406 11.25 -25.078125 C 11.539062 -25.703125 11.363281 -25.976562 10.71875 -25.90625 C 9.601562 -25.789062 8.046875 -25.75 6.046875 -25.78125 L 3.703125 -25.796875 L 1.375 -25.734375 C 1.289062 -25.722656 1.171875 -25.679688 1.015625 -25.609375 L 0.609375 -25.453125 C 0.316406 -25.347656 0.144531 -25.441406 0.09375 -25.734375 C 0.03125 -25.992188 0.160156 -26.179688 0.484375 -26.296875 L 0.921875 -26.4375 L 1.375 -26.5 C 2.625 -26.6875 4.144531 -26.847656 5.9375 -26.984375 L 8.21875 -27.140625 L 10.5 -27.3125 C 11.882812 -27.414062 12.90625 -27.707031 13.5625 -28.1875 C 13.957031 -28.476562 14.554688 -28.507812 15.359375 -28.28125 C 16.117188 -28.0625 16.675781 -27.734375 17.03125 -27.296875 C 18.125 -25.921875 18.191406 -24.1875 17.234375 -22.09375 L 16.6875 -20.890625 L 16.125 -19.65625 C 15.976562 -19.320312 16.09375 -19.050781 16.46875 -18.84375 C 16.738281 -18.6875 17.101562 -18.613281 17.5625 -18.625 L 18.046875 -18.671875 C 18.210938 -18.660156 18.359375 -18.632812 18.484375 -18.59375 Z M 20.5625 -18.5625 "/></g></g></g></svg>